static_grf.mot
version=1
nRows=15
nColumns 19
inDegrees=yes
endheader
time	1_ground_force_vx	1_ground_force_vy	1_ground_force_vz	1_ground_force_px	1_ground_force_py	1_ground_force_pz	1_ground_torque_x	1_ground_torque_y	1_ground_torque_z	2_ground_force_vx	2_ground_force_vy	2_ground_force_vz	2_ground_force_px	2_ground_force_py	2_ground_force_pz	2_ground_torque_x	2_ground_torque_y	2_ground_torque_z
            0.503500	            4.942229	          340.307828	          -32.487424	           -0.291776	            0.006266	           -0.417963	            0.024695	            1.700408	           -0.162329	          -12.406157	          453.288591	           14.433635	           -0.255066	            0.005629	           -0.716108	           -0.064689	            2.363564	            0.075261
            0.504000	            4.942328	          339.767000	          -32.489743	           -0.291706	            0.006267	           -0.418058	            0.024572	            1.689242	           -0.161531	          -12.360718	          453.657711	           14.247216	           -0.254753	            0.005630	           -0.716160	           -0.063686	            2.337385	            0.073406
            0.504500	            4.758809	          339.947458	          -32.534375	           -0.291651	            0.006268	           -0.418257	            0.023253	            1.661082	           -0.158972	          -12.223389	          454.578146	           14.485083	           -0.254626	            0.005631	           -0.716354	           -0.062254	            2.315185	            0.073773
            0.505000	            4.987781	          339.407264	          -32.674827	           -0.291978	            0.006268	           -0.418308	            0.024975	            1.699479	           -0.163609	          -12.272315	          455.131068	           14.299361	           -0.254929	            0.005631	           -0.716539	           -0.063296	            2.347410	            0.073751
            0.505500	            4.988090	          339.586971	          -32.536490	           -0.291834	            0.006268	           -0.418259	            0.025177	            1.714020	           -0.164224	          -12.360698	          453.657543	           14.294145	           -0.254919	            0.005630	           -0.716243	           -0.063576	            2.333334	            0.073520
            0.506000	            4.804814	          340.307605	          -32.441231	           -0.291541	            0.006266	           -0.417798	            0.022877	            1.620274	           -0.154459	          -12.220086	          453.657549	           14.434869	           -0.254836	            0.005629	           -0.715991	           -0.061914	            2.298480	            0.073135
            0.506500	            4.666880	          339.407202	          -32.674030	           -0.291989	            0.006267	           -0.418150	            0.022133	            1.609666	           -0.154959	          -12.312313	          453.287758	           14.762092	           -0.254860	            0.005629	           -0.716064	           -0.063270	            2.329338	            0.075859
            0.507000	            4.987649	          340.128327	          -32.671735	           -0.291702	            0.006266	           -0.417854	            0.024207	            1.650781	           -0.158569	          -12.268245	          454.025494	           14.483131	           -0.254532	            0.005631	           -0.716298	           -0.064288	            2.379177	            0.075894
            0.507500	            4.713292	          339.406228	          -32.444868	           -0.291925	            0.006267	           -0.418009	            0.022616	            1.628624	           -0.155685	          -12.317089	          454.577808	           14.485122	           -0.254834	            0.005631	           -0.716438	           -0.063188	            2.332042	            0.074311
            0.508000	            4.666913	          339.226967	          -32.674803	           -0.292003	            0.006268	           -0.418345	            0.022928	            1.666567	           -0.160526	          -12.130333	          454.762458	           14.532628	           -0.254784	            0.005631	           -0.716442	           -0.062111	            2.328534	            0.074412
            0.508500	            4.850708	          339.406451	          -32.491062	           -0.291571	            0.006267	           -0.417958	            0.023459	            1.641465	           -0.157136	          -12.361301	          453.841182	           14.435586	           -0.254619	            0.005630	           -0.716206	           -0.062809	            2.306025	            0.073349
            0.509000	            4.942897	          339.766017	          -32.260467	           -0.291661	            0.006268	           -0.418196	            0.024234	            1.665808	           -0.158167	          -12.125784	          453.474249	           14.293388	           -0.254635	            0.005631	           -0.716397	           -0.061205	            2.288919	            0.072146
            0.509500	            4.758923	          339.947261	          -32.488515	           -0.291772	            0.006267	           -0.417976	            0.022737	            1.624192	           -0.155223	          -12.269615	          454.394171	           14.390589	           -0.254882	            0.005630	           -0.716471	           -0.062088	            2.299361	            0.072820
            0.510000	            4.805631	          338.323865	          -32.266310	           -0.291931	            0.006270	           -0.418728	            0.023378	            1.645817	           -0.156963	          -12.218840	          453.289937	           14.245843	           -0.254604	            0.005630	           -0.715979	           -0.062409	            2.315225	            0.072762
            0.510500	            4.896647	          340.127130	          -32.396372	           -0.291776	            0.006266	           -0.417876	            0.023623	            1.640895	           -0.156292	          -12.313101	          453.472902	           14.481180	           -0.254726	            0.005629	           -0.716031	           -0.064504	            2.375585	            0.075862
